<svg width="121" height="121" viewBox="0 0 121 121" fill="none" xmlns="http://www.w3.org/2000/svg">
<path d="M60.4619 3.50009C91.9212 3.50009 117.425 29.0028 117.425 60.462C117.425 91.9213 91.9212 117.425 60.4619 117.425C29.0027 117.425 3.5 91.9213 3.5 60.462C3.50013 29.0029 29.0028 3.50022 60.4619 3.50009Z" fill="#FF715B" stroke="white" stroke-width="7"/>
<path d="M60.4621 100.559C82.6069 100.559 100.559 82.6069 100.559 60.4622C100.559 38.3174 82.6069 20.3656 60.4621 20.3656C38.3173 20.3656 20.3655 38.3174 20.3655 60.4622C20.3655 82.6069 38.3173 100.559 60.4621 100.559Z" fill="white"/>
<path d="M60.4622 90.1637C76.8657 90.1637 90.1634 76.866 90.1634 60.4625C90.1634 44.059 76.8657 30.7613 60.4622 30.7613C44.0587 30.7613 30.761 44.059 30.761 60.4625C30.761 76.866 44.0587 90.1637 60.4622 90.1637Z" fill="#FF715B"/>
<path d="M60.4623 78.2832C70.3044 78.2832 78.283 70.3046 78.283 60.4625C78.283 50.6204 70.3044 42.6418 60.4623 42.6418C50.6202 42.6418 42.6416 50.6204 42.6416 60.4625C42.6416 70.3046 50.6202 78.2832 60.4623 78.2832Z" fill="white"/>
<path d="M60.4621 69.3726C65.3832 69.3726 69.3725 65.3833 69.3725 60.4623C69.3725 55.5412 65.3832 51.5519 60.4621 51.5519C55.5411 51.5519 51.5518 55.5412 51.5518 60.4623C51.5518 65.3833 55.5411 69.3726 60.4621 69.3726Z" fill="#FF715B"/>
<path opacity="0.2" d="M61.1749 61.2998L100.214 96.2106C100.214 96.2106 92.3523 106.238 76.7799 111.385L59.2117 61.7097L61.1749 61.2998Z" fill="black"/>
<path d="M61.3356 63.4325C60.7501 63.4344 60.1772 63.2622 59.6898 62.9377C59.2024 62.6133 58.8225 62.1512 58.5984 61.6103C58.3743 61.0694 58.316 60.4741 58.4311 59.9C58.5462 59.3259 58.8293 58.799 59.2446 58.3862L60.9168 56.714C61.471 56.1595 62.2227 55.8478 63.0067 55.8475C63.7907 55.8472 64.5427 56.1584 65.0972 56.7126C65.6518 57.2667 65.9635 58.0185 65.9638 58.8025C65.9641 59.5865 65.6529 60.3384 65.0987 60.893L63.4236 62.5652C63.1503 62.8408 62.825 63.0593 62.4666 63.2082C62.1081 63.3571 61.7237 63.4333 61.3356 63.4325Z" fill="#FFAC33"/>
<path d="M78.3303 27.7344C77.1334 33.9093 78.3303 41.6672 78.3303 41.6672L99.2815 19.724C100.146 15.4054 97.7133 8.04545 94.1789 7.13659C90.6444 6.22774 82.0638 9.5216 78.3303 27.7344ZM93.1898 42.5939C87.0149 43.7908 79.257 42.5939 79.257 42.5939L101.2 21.6427C105.519 20.7784 112.879 23.2109 113.788 26.7453C114.696 30.2798 111.403 38.8604 93.1898 42.5939Z" fill="#55ACEE"/>
<path d="M104.414 20.3212L69.8953 59.2357C68.8201 60.3109 64.9263 61.8553 62.4403 59.3723C59.9573 56.8893 61.1958 53.1945 62.271 52.1163L101.494 17.3986C101.494 17.3986 103.502 15.5126 104.937 16.9471C106.371 18.3817 104.414 20.3212 104.414 20.3212Z" fill="#3A87C2"/>
</svg>
