<svg width="43" height="39" viewBox="0 0 43 39" fill="none" xmlns="http://www.w3.org/2000/svg">
<path d="M0.366943 1.87536C0.366943 0.888053 1.16508 0.09375 2.15716 0.09375H5.55112C7.19216 0.09375 8.64671 1.04394 9.3255 2.46923H39.983C41.9448 2.46923 43.377 4.32508 42.8623 6.21062L39.804 17.5164C39.17 19.8474 37.0441 21.4731 34.6198 21.4731H13.0999L13.5027 23.5888C13.6668 24.4276 14.4053 25.0363 15.2631 25.0363H36.7681C37.7602 25.0363 38.5583 25.8306 38.5583 26.818C38.5583 27.8053 37.7602 28.5996 36.7681 28.5996H15.2631C12.6822 28.5996 10.4668 26.7734 9.98938 24.2569L6.1404 4.1395C6.08819 3.85741 5.84203 3.65698 5.55112 3.65698H2.15716C1.16508 3.65698 0.366943 2.86267 0.366943 1.87536ZM9.91479 34.5383C9.91479 34.0703 10.0074 33.607 10.1873 33.1747C10.3673 32.7424 10.631 32.3496 10.9635 32.0187C11.2959 31.6878 11.6907 31.4254 12.1251 31.2463C12.5594 31.0672 13.025 30.9751 13.4952 30.9751C13.9654 30.9751 14.431 31.0672 14.8654 31.2463C15.2998 31.4254 15.6945 31.6878 16.027 32.0187C16.3595 32.3496 16.6232 32.7424 16.8031 33.1747C16.9831 33.607 17.0757 34.0703 17.0757 34.5383C17.0757 35.0062 16.9831 35.4696 16.8031 35.9019C16.6232 36.3342 16.3595 36.727 16.027 37.0579C15.6945 37.3887 15.2998 37.6512 14.8654 37.8303C14.431 38.0093 13.9654 38.1015 13.4952 38.1015C13.025 38.1015 12.5594 38.0093 12.1251 37.8303C11.6907 37.6512 11.2959 37.3887 10.9635 37.0579C10.631 36.727 10.3673 36.3342 10.1873 35.9019C10.0074 35.4696 9.91479 35.0062 9.91479 34.5383ZM34.9779 30.9751C35.9275 30.9751 36.8382 31.3505 37.5096 32.0187C38.1811 32.6869 38.5583 33.5933 38.5583 34.5383C38.5583 35.4833 38.1811 36.3896 37.5096 37.0579C36.8382 37.7261 35.9275 38.1015 34.9779 38.1015C34.0283 38.1015 33.1176 37.7261 32.4461 37.0579C31.7747 36.3896 31.3974 35.4833 31.3974 34.5383C31.3974 33.5933 31.7747 32.6869 32.4461 32.0187C33.1176 31.3505 34.0283 30.9751 34.9779 30.9751Z" fill="white"/>
</svg>
