<svg width="159" height="134" viewBox="0 0 159 134" fill="none" xmlns="http://www.w3.org/2000/svg">
<g filter="url(#filter0_di_33_299)">
<path d="M25.9795 4C27.8637 4.00004 29.4875 5.10946 30.2373 6.70996C30.3248 6.88276 30.4045 7.06203 30.4717 7.24902L35.6367 21.6289H139.979C142.012 21.6289 143.742 22.919 144.398 24.7246C144.904 25.7558 145.038 26.9734 144.678 28.1592L130.949 73.3848C130.423 75.1196 128.984 76.3258 127.317 76.6396C126.863 76.7857 126.38 76.8662 125.877 76.8662H55.4766L58.4307 85.0928H116.475C118.638 85.0928 120.459 86.5551 121.006 88.5449C126.617 90.8057 130.577 96.3011 130.577 102.722C130.577 111.16 123.737 118 115.299 118C106.861 118 100.021 111.159 100.021 102.722C100.021 99.693 100.902 96.8697 102.422 94.4951H70.5889C72.109 96.8697 72.9902 99.6929 72.9902 102.722C72.9902 111.16 66.1498 118 57.7119 118C49.2739 118 42.4336 111.16 42.4336 102.722C42.4336 97.0849 45.4862 92.1616 50.0283 89.5137L22.6914 13.4023H10.7012C8.10507 13.4022 6.00008 11.2973 6 8.70117C6 6.10498 8.10502 4.00018 10.7012 4H25.9795ZM57.7119 95.6699C53.8175 95.6699 50.6602 98.8272 50.6602 102.722C50.6602 106.616 53.8175 109.773 57.7119 109.773C61.6062 109.773 64.7636 106.616 64.7637 102.722C64.7637 98.8273 61.6062 95.6701 57.7119 95.6699ZM115.299 95.6699C111.405 95.6702 108.247 98.8274 108.247 102.722C108.247 106.616 111.405 109.773 115.299 109.773C119.193 109.773 122.351 106.616 122.351 102.722C122.351 98.8272 119.193 95.6699 115.299 95.6699ZM52.0986 67.4639H73.4688L71.5566 52.1855H46.6113L52.0986 67.4639ZM78.2051 67.4639H99.3906L100.614 52.1855H76.2939L78.2051 67.4639ZM104.105 67.4639H122.922L127.559 52.1855H105.329L104.105 67.4639ZM44.9229 47.4844H70.9678L68.9092 31.0312H39.0137L44.9229 47.4844ZM75.7051 47.4844H100.99L102.308 31.0312H73.6465L75.7051 47.4844ZM106.992 31.0312C107.001 31.1517 107.004 31.2742 106.994 31.3984L105.706 47.4844H128.986L133.979 31.0312H106.992Z" fill="white"/>
</g>
<defs>
<filter id="filter0_di_33_299" x="0" y="0" width="158.881" height="134" filterUnits="userSpaceOnUse" color-interpolation-filters="sRGB">
<feFlood flood-opacity="0" result="BackgroundImageFix"/>
<feColorMatrix in="SourceAlpha" type="matrix" values="0 0 0 0 0 0 0 0 0 0 0 0 0 0 0 0 0 0 127 0" result="hardAlpha"/>
<feOffset dx="4" dy="6"/>
<feGaussianBlur stdDeviation="5"/>
<feComposite in2="hardAlpha" operator="out"/>
<feColorMatrix type="matrix" values="0 0 0 0 0 0 0 0 0 0 0 0 0 0 0 0 0 0 0.4 0"/>
<feBlend mode="normal" in2="BackgroundImageFix" result="effect1_dropShadow_33_299"/>
<feBlend mode="normal" in="SourceGraphic" in2="effect1_dropShadow_33_299" result="shape"/>
<feColorMatrix in="SourceAlpha" type="matrix" values="0 0 0 0 0 0 0 0 0 0 0 0 0 0 0 0 0 0 127 0" result="hardAlpha"/>
<feOffset dx="2" dy="4"/>
<feGaussianBlur stdDeviation="1"/>
<feComposite in2="hardAlpha" operator="arithmetic" k2="-1" k3="1"/>
<feColorMatrix type="matrix" values="0 0 0 0 1 0 0 0 0 1 0 0 0 0 1 0 0 0 0.4 0"/>
<feBlend mode="normal" in2="shape" result="effect2_innerShadow_33_299"/>
</filter>
</defs>
</svg>
