<svg width="168" height="85" viewBox="0 0 168 85" fill="none" xmlns="http://www.w3.org/2000/svg">
<path d="M164.712 26.0121C161.507 18.4577 156.182 12.0471 149.468 7.50947C146.128 5.25427 142.431 3.4604 138.464 2.23715C134.524 0.987325 130.313 0.334686 125.967 0.334686C120.394 0.334686 115.042 1.42275 110.152 3.40758C109.743 3.56901 109.364 3.73111 108.984 3.92208C104.582 5.85113 100.56 8.56833 97.1102 11.8027C95.9959 12.8615 94.9371 13.9758 93.8756 15.2257C92.0023 17.3722 90.0733 19.8453 88.1974 22.3447C87.8177 22.8592 87.4092 23.4032 87.0299 23.921C85.9976 25.3326 76.1322 39.7884 74.3941 42.3701C73.524 43.6728 72.4917 45.1402 71.377 46.743C71.1329 47.0961 70.8625 47.4781 70.5918 47.8574C68.7425 50.4925 66.6779 53.2652 64.7755 55.7117C63.8256 56.9323 62.873 58.0732 62.0583 59.0258C61.2173 60.0023 60.4557 60.7904 59.9117 61.3075C57.5767 63.5073 54.8303 65.3011 51.8162 66.5244C48.7994 67.7476 45.5116 68.4269 42.0328 68.4269C39.6421 68.4269 37.3334 68.1001 35.1606 67.5032C34.0462 67.2036 32.9582 66.824 31.8993 66.3623C27.2242 64.4041 23.2306 61.09 20.4314 56.932C19.0198 54.8412 17.9051 52.5591 17.1439 50.1126C16.4112 47.6661 15.9764 45.087 15.9764 42.3698C15.9764 38.7558 16.7114 35.3594 18.0141 32.2334C19.9989 27.5609 23.313 23.5942 27.471 20.768C29.5618 19.3538 31.8435 18.2684 34.29 17.5068C36.7339 16.7452 39.3156 16.3131 42.0328 16.3131C45.5116 16.3393 48.7994 16.9923 51.8162 18.2129C54.8307 19.4624 57.5767 21.2297 59.9117 23.4294C60.4557 23.9469 61.2173 24.7613 62.0583 25.7138C63.5257 27.4253 65.2637 29.6251 67.0044 31.9364C67.6837 32.8597 68.3629 33.7831 69.0421 34.733C71.6504 30.9307 76.2142 24.2465 78.605 20.7943C78.1991 20.2502 77.7906 19.7092 77.3843 19.1651C76.2963 17.7772 75.2085 16.4479 74.1234 15.2247C73.0354 13.9748 72.0031 12.8605 70.8888 11.8017C67.1396 8.26711 62.7113 5.38847 57.8471 3.40626C52.9568 1.42144 47.6024 0.333374 42.0328 0.333374C36.2457 0.333374 30.7027 1.50347 25.6505 3.65006C18.0964 6.82893 11.7095 12.1544 7.17183 18.8649C4.91663 22.2085 3.12539 25.9284 1.87556 29.8689C0.652641 33.8369 0 38.0215 0 42.3705C0 48.1576 1.16747 53.7006 3.28781 58.7262C6.49294 66.3072 11.8184 72.6941 18.5026 77.2314C21.8725 79.487 25.5688 81.2779 29.5355 82.5277C33.4756 83.751 37.6868 84.4036 42.0331 84.4036C47.6027 84.4036 52.9574 83.3155 57.8475 81.3337C62.7116 79.3488 67.1134 76.4695 70.8629 72.9645L70.8891 72.9379C72.0037 71.9056 73.036 70.7621 74.1238 69.5123C75.997 67.3657 77.9261 64.8952 79.802 62.3956C80.1816 61.8781 80.5901 61.3607 80.9694 60.8459C82.0017 59.4051 95.5077 39.5971 96.6197 37.9946C96.8664 37.6415 97.1371 37.2622 97.4075 36.8803C99.2572 34.2717 101.321 31.4728 103.224 29.0289C104.174 27.8056 105.126 26.6644 105.941 25.7145C106.782 24.7354 107.544 23.9472 108.088 23.4301C110.423 21.2303 113.169 19.4631 116.183 18.2136C116.918 17.9163 117.651 17.6725 118.412 17.4254C120.803 16.7199 123.329 16.3403 125.967 16.3137C129.58 16.34 133.003 17.0461 136.1 18.378C140.773 20.3336 144.769 23.6476 147.565 27.8056C148.98 29.8991 150.094 32.1812 150.853 34.6247C151.614 37.0712 152.023 39.6529 152.023 42.3701C152.023 45.9841 151.288 49.4071 149.985 52.5036C148 57.1761 144.686 61.1723 140.528 63.969C138.438 65.3832 136.156 66.4978 133.709 67.2302C131.292 67.9918 128.684 68.4272 125.967 68.4272C122.488 68.4272 119.2 67.748 116.183 66.5247C113.169 65.3015 110.422 63.5076 108.087 61.3079C107.543 60.7904 106.782 59.976 105.941 59.0261C104.473 57.3412 102.733 55.1122 100.995 52.8038C100.289 51.8802 99.6096 50.9276 98.9304 49.9777C98.7128 50.3039 98.4953 50.6307 98.2511 50.9834C93.767 57.5587 90.9408 61.7164 89.3937 63.9693C89.7996 64.5133 90.2085 65.0308 90.6143 65.5748C91.7024 66.9598 92.7901 68.292 93.8753 69.5123C94.9364 70.7618 95.9956 71.9056 97.1099 72.9379C100.859 76.4695 105.288 79.3488 110.152 81.3337C115.042 83.3155 120.394 84.4036 125.966 84.4036C131.753 84.4036 137.296 83.2361 142.322 81.1161C149.903 77.9107 156.287 72.5852 160.827 65.8721C163.08 62.5314 164.902 58.8351 166.123 54.8681C167.347 50.9276 168 46.7168 168 42.3705C168 36.5833 166.833 31.0403 164.712 26.0121Z" fill="white"/>
</svg>
