<svg width="74" height="44" viewBox="0 0 74 38" fill="none" xmlns="http://www.w3.org/2000/svg">
<g filter="url(#filter0_di_136_48)">
<path d="M37.0174 19.1642C37.0174 28.4722 29.4718 36.0178 20.1638 36.0178C10.8558 36.0178 3.31018 28.4722 3.31018 19.1642C3.31018 9.85617 10.8558 2.31055 20.1638 2.31055C29.4718 2.31055 37.0174 9.85617 37.0174 19.1642Z" fill="white"/>
<path d="M53.1541 19.1642C53.1541 28.4722 45.6085 36.0178 36.3005 36.0178C26.9925 36.0178 19.4469 28.4722 19.4469 19.1642C19.4469 9.85617 26.9925 2.31055 36.3005 2.31055C45.6085 2.31055 53.1541 9.85617 53.1541 19.1642Z" fill="white"/>
<path d="M67.4979 19.1642C67.4979 28.4722 59.9523 36.0178 50.6443 36.0178C41.3363 36.0178 33.7906 28.4722 33.7906 19.1642C33.7906 9.85617 41.3363 2.31055 50.6443 2.31055C59.9523 2.31055 67.4979 9.85617 67.4979 19.1642Z" fill="white"/>
</g>
<circle cx="20.243" cy="19.243" r="14.243" fill="url(#paint0_linear_136_48)"/>
<circle cx="20.2427" cy="19.243" r="13.4051" fill="url(#paint1_linear_136_48)"/>
<g filter="url(#filter1_i_136_48)">
<circle cx="20.2426" cy="19.243" r="12.7768" fill="#149514"/>
</g>
<g filter="url(#filter2_d_136_48)">
<path d="M26.8558 12.6652L25.7909 13.574C24.3852 12.1694 21.0626 10.3518 17.2715 11.8389C13.4804 13.3261 12.7563 17.0028 12.7137 17.3333C12.6796 17.5976 12.7137 17.6895 12.9267 17.7051C13.6792 17.7601 15.2525 17.8703 15.5251 17.8703C15.7381 17.8703 15.8374 17.829 15.9084 17.7051C16.1214 17.3333 16.59 15.5156 18.5494 14.772C20.9681 13.8541 22.8091 15.2815 23.4055 16.0526L22.1702 17.168C22.0377 17.2737 21.8342 17.4803 21.8673 17.7695C21.9079 18.123 22.2081 18.2239 22.3831 18.2421L28.0485 18.8204C28.2331 18.8342 28.6388 18.8204 28.8578 18.5726C29.1295 18.2652 29.0282 17.8978 28.9856 17.7051L27.9207 13.3674C27.8923 13.1884 27.7968 12.7378 27.4901 12.6056C27.1834 12.4734 26.9789 12.5643 26.8558 12.6652Z" fill="white"/>
</g>
<g filter="url(#filter3_d_136_48)">
<path d="M13.6294 25.8208L14.6944 24.912C16.1001 26.3165 19.4226 28.1342 23.2137 26.647C27.0048 25.1598 27.7289 21.4832 27.7715 21.1527C27.8056 20.8883 27.7716 20.7965 27.5585 20.7809C26.806 20.7258 25.2328 20.6157 24.9601 20.6157C24.7472 20.6157 24.6478 20.657 24.5768 20.7809C24.3638 21.1527 23.8952 22.9704 21.9358 23.714C19.5171 24.6318 17.6761 23.2045 17.0798 22.4333L18.3151 21.3179C18.4475 21.2122 18.651 21.0057 18.6179 20.7165C18.5774 20.3629 18.2771 20.2621 18.1021 20.2439L12.4367 19.6655C12.2521 19.6518 11.8465 19.6655 11.6274 19.9134C11.3557 20.2208 11.457 20.5881 11.4996 20.7809L12.5645 25.1185C12.5929 25.2975 12.6884 25.7481 12.9951 25.8803C13.3018 26.0125 13.5063 25.9216 13.6294 25.8208Z" fill="white"/>
</g>
<circle cx="35.535" cy="19.243" r="14.243" fill="url(#paint2_linear_136_48)"/>
<circle cx="35.535" cy="19.243" r="13.4051" fill="url(#paint3_linear_136_48)"/>
<g filter="url(#filter4_i_136_48)">
<circle cx="35.535" cy="19.2431" r="12.7768" fill="#481C8D"/>
</g>
<g filter="url(#filter5_f_136_48)">
<path d="M43.2694 19.9398C41.9947 21.6617 39.931 22.7718 39.0585 23.1116C40.151 24.5615 43.1556 24.8485 44.5213 24.8108C40.4242 26.1701 36.7444 24.924 35.4166 24.1311C35.7808 26.3966 37.3893 29.0775 38.148 30.1348C34.8703 28.2317 32.4576 24.8108 32.1162 21.9788C31.0236 23.3382 31.1678 26.2078 31.4333 27.4161C29.0434 24.8108 29.4227 19.9776 30.7505 18.354C28.2922 19.1696 26.3878 21.5635 25.7429 22.6585C25.7429 19.1469 30.1056 15.2577 32.4576 14.6158C31.6382 14.6158 28.5502 14.1627 27.1086 13.9362C29.9538 12.8034 34.0889 12.8412 35.4166 13.9362C34.7793 12.5768 34.4682 9.36734 34.3923 7.9325C35.4166 10.0848 36.4409 12.3503 38.148 14.6158C38.6032 13.5963 39.3999 12.237 39.9689 10.3113C39.9689 11.8972 40.3787 13.0753 40.6518 15.0689C40.9249 17.0626 41.0312 18.9959 40.6518 19.9398C41.4712 18.8524 43.2694 18.0141 45.4317 15.6353C45.2421 16.3527 44.544 18.218 43.2694 19.9398Z" fill="url(#paint4_radial_136_48)"/>
</g>
<g opacity="0.7" filter="url(#filter6_f_136_48)">
<path d="M42.761 21.3376C41.588 22.9295 39.5843 22.6991 38.7813 23.0132C40.5617 23.4322 42.5515 24.6191 43.8083 24.5842C38.7813 26.9929 35.8506 25.5267 35.4301 23.9558C35.7652 26.0504 37.2453 28.5289 37.9435 29.5064C33.3355 28.3544 32.393 24.5842 32.393 21.966C31.7646 23.9558 31.5202 25.8758 31.7646 26.9929C29.1464 25.1078 28.4133 21.3376 31.1362 18.6147C28.8741 19.3687 27.1217 21.582 26.5282 22.5943C26.5282 18.1188 28.7917 15.9774 31.1678 15.3565C30.1701 15.4501 28.907 15.3915 27.7849 14.5303C31.1362 12.1216 34.2082 13.5179 35.4301 14.5303C33.2308 12.708 34.5573 10.3063 34.4875 8.97974C35.4301 10.9696 37.3152 12.2263 37.9435 15.1587C37.9435 13.1688 39.0955 12.9594 39.6192 11.179C39.6192 12.6452 40.7293 14.258 40.9806 16.1012C41.232 17.9444 40.5966 19.2081 40.2475 20.0809C41.0016 19.0755 41.609 17.8816 44.6461 16.1012C44.4715 16.7645 43.9339 19.7457 42.761 21.3376Z" fill="url(#paint5_radial_136_48)"/>
</g>
<path d="M42.6563 20.0809C41.4833 21.6727 39.5843 22.6991 38.7813 23.0132C39.7867 24.3538 42.5515 24.6191 43.8083 24.5842C40.0381 25.8409 36.6519 24.6889 35.4301 23.9558C35.7652 26.0504 37.2453 28.5289 37.9435 29.5064C34.9274 27.7469 32.7071 24.5842 32.393 21.966C31.3876 23.2227 31.5202 25.8758 31.7646 26.9929C29.5653 24.5842 29.9144 20.1158 31.1362 18.6147C28.8741 19.3687 27.1217 21.582 26.5282 22.5943C26.5282 19.3478 30.5428 15.7521 32.7071 15.1587C31.9531 15.1587 29.1115 14.7398 27.7849 14.5303C30.4031 13.483 34.2082 13.5179 35.4301 14.5303C34.8436 13.2736 34.5573 10.3063 34.4875 8.97974C35.4301 10.9696 36.3726 13.0641 37.9435 15.1587C38.3624 14.2161 39.0955 12.9594 39.6192 11.179C39.6192 12.6452 39.9962 13.7344 40.2475 15.5776C40.4989 17.4208 40.5966 19.2081 40.2475 20.0809C41.0016 19.0755 42.6563 18.3005 44.6461 16.1012C44.4715 16.7645 43.8292 18.489 42.6563 20.0809Z" fill="url(#paint6_radial_136_48)"/>
<circle cx="35.4304" cy="19.1384" r="2.19928" fill="#FFFD7B"/>
<circle cx="32.8119" cy="28.6684" r="0.418911" fill="url(#paint7_radial_136_48)"/>
<circle cx="28.937" cy="12.2263" r="0.523639" fill="url(#paint8_radial_136_48)"/>
<circle cx="37.9436" cy="11.0744" r="0.314174" fill="url(#paint9_radial_136_48)"/>
<circle cx="42.5516" cy="15.3681" r="0.314174" fill="url(#paint10_radial_136_48)"/>
<circle cx="39.6192" cy="27.5166" r="0.314174" fill="url(#paint11_radial_136_48)"/>
<circle cx="41.8186" cy="26.3647" r="0.209449" fill="url(#paint12_radial_136_48)"/>
<circle cx="43.8081" cy="21.233" r="0.104725" fill="url(#paint13_radial_136_48)"/>
<circle cx="28.2041" cy="24.0604" r="0.209449" fill="url(#paint14_radial_136_48)"/>
<circle cx="26.4235" cy="15.9964" r="0.104725" fill="url(#paint15_radial_136_48)"/>
<circle cx="31.3459" cy="12.1216" r="0.209449" fill="url(#paint16_radial_136_48)"/>
<circle cx="50.8276" cy="19.243" r="14.243" fill="url(#paint17_linear_136_48)"/>
<g filter="url(#filter7_i_136_48)">
<circle cx="50.8568" cy="19.2432" r="13.5753" fill="#A5122E"/>
</g>
<g filter="url(#filter8_f_136_48)">
<path d="M53.8613 25.1493L58.9799 18.3616C56.9028 20.142 52.6596 23.7027 52.3035 23.7027C52.0809 23.7027 52.0809 23.2576 52.0809 23.3689C52.0809 18.6583 51.8584 9.19268 51.8584 9.01464C51.8584 8.79209 51.7471 7.79064 50.7457 7.90191C49.9445 7.99093 49.7442 8.68082 49.7442 9.01464V22.9238C49.7442 23.5914 49.6329 23.7027 49.4104 23.7027C49.2324 23.7027 44.8111 20.142 42.6227 18.3616L47.7413 25.1493L41.7325 26.1507L48.0751 27.1522C47.5558 28.2278 46.5618 30.3791 46.7398 30.3791C46.9179 30.3791 49.4846 28.6729 50.7457 27.8198C52.0438 28.71 54.6847 30.4681 54.8628 30.3791C55.0408 30.2901 54.0468 28.1907 53.5275 27.1522L59.8701 26.1507L53.8613 25.1493Z" fill="url(#paint18_radial_136_48)"/>
</g>
<path d="M53.8613 25.1493L58.9799 18.3616C56.9028 20.142 52.6596 23.7027 52.3035 23.7027C52.0809 23.7027 52.0809 23.2576 52.0809 23.3689C52.0809 18.6583 51.8584 9.19268 51.8584 9.01464C51.8584 8.79209 51.7471 7.79064 50.7457 7.90191C49.9445 7.99093 49.7442 8.68082 49.7442 9.01464V22.9238C49.7442 23.5914 49.6329 23.7027 49.4104 23.7027C49.2324 23.7027 44.8111 20.142 42.6227 18.3616L47.7413 25.1493L41.7325 26.1507L48.0751 27.1522C47.5558 28.2278 46.5618 30.3791 46.7398 30.3791C46.9179 30.3791 49.4846 28.6729 50.7457 27.8198C52.0438 28.71 54.6847 30.4681 54.8628 30.3791C55.0408 30.2901 54.0468 28.1907 53.5275 27.1522L59.8701 26.1507L53.8613 25.1493Z" fill="url(#paint19_radial_136_48)"/>
<defs>
<filter id="filter0_di_136_48" x="0.620727" y="0.517578" width="73.1526" height="42.6721" filterUnits="userSpaceOnUse" color-interpolation-filters="sRGB">
<feFlood flood-opacity="0" result="BackgroundImageFix"/>
<feColorMatrix in="SourceAlpha" type="matrix" values="0 0 0 0 0 0 0 0 0 0 0 0 0 0 0 0 0 0 127 0" result="hardAlpha"/>
<feOffset dx="1.79297" dy="2.68945"/>
<feGaussianBlur stdDeviation="2.24121"/>
<feComposite in2="hardAlpha" operator="out"/>
<feColorMatrix type="matrix" values="0 0 0 0 0 0 0 0 0 0 0 0 0 0 0 0 0 0 0.4 0"/>
<feBlend mode="normal" in2="BackgroundImageFix" result="effect1_dropShadow_136_48"/>
<feBlend mode="normal" in="SourceGraphic" in2="effect1_dropShadow_136_48" result="shape"/>
<feColorMatrix in="SourceAlpha" type="matrix" values="0 0 0 0 0 0 0 0 0 0 0 0 0 0 0 0 0 0 127 0" result="hardAlpha"/>
<feOffset dx="0.896484" dy="0.896484"/>
<feGaussianBlur stdDeviation="0.896484"/>
<feComposite in2="hardAlpha" operator="arithmetic" k2="-1" k3="1"/>
<feColorMatrix type="matrix" values="0 0 0 0 1 0 0 0 0 1 0 0 0 0 1 0 0 0 0.4 0"/>
<feBlend mode="normal" in2="shape" result="effect2_innerShadow_136_48"/>
</filter>
<filter id="filter1_i_136_48" x="7.46582" y="6.46619" width="25.5536" height="25.5536" filterUnits="userSpaceOnUse" color-interpolation-filters="sRGB">
<feFlood flood-opacity="0" result="BackgroundImageFix"/>
<feBlend mode="normal" in="SourceGraphic" in2="BackgroundImageFix" result="shape"/>
<feColorMatrix in="SourceAlpha" type="matrix" values="0 0 0 0 0 0 0 0 0 0 0 0 0 0 0 0 0 0 127 0" result="hardAlpha"/>
<feOffset/>
<feGaussianBlur stdDeviation="0.41891"/>
<feComposite in2="hardAlpha" operator="arithmetic" k2="-1" k3="1"/>
<feColorMatrix type="matrix" values="0 0 0 0 0 0 0 0 0 0 0 0 0 0 0 0 0 0 0.4 0"/>
<feBlend mode="normal" in2="shape" result="effect1_innerShadow_136_48"/>
</filter>
<filter id="filter2_d_136_48" x="12.7023" y="11.2837" width="18.0132" height="9.21604" filterUnits="userSpaceOnUse" color-interpolation-filters="sRGB">
<feFlood flood-opacity="0" result="BackgroundImageFix"/>
<feColorMatrix in="SourceAlpha" type="matrix" values="0 0 0 0 0 0 0 0 0 0 0 0 0 0 0 0 0 0 127 0" result="hardAlpha"/>
<feOffset dx="0.83782" dy="0.83782"/>
<feGaussianBlur stdDeviation="0.41891"/>
<feComposite in2="hardAlpha" operator="out"/>
<feColorMatrix type="matrix" values="0 0 0 0 0 0 0 0 0 0 0 0 0 0 0 0 0 0 0.25 0"/>
<feBlend mode="normal" in2="BackgroundImageFix" result="effect1_dropShadow_136_48"/>
<feBlend mode="normal" in="SourceGraphic" in2="effect1_dropShadow_136_48" result="shape"/>
</filter>
<filter id="filter3_d_136_48" x="11.4454" y="19.6619" width="18.0132" height="9.21604" filterUnits="userSpaceOnUse" color-interpolation-filters="sRGB">
<feFlood flood-opacity="0" result="BackgroundImageFix"/>
<feColorMatrix in="SourceAlpha" type="matrix" values="0 0 0 0 0 0 0 0 0 0 0 0 0 0 0 0 0 0 127 0" result="hardAlpha"/>
<feOffset dx="0.83782" dy="0.83782"/>
<feGaussianBlur stdDeviation="0.41891"/>
<feComposite in2="hardAlpha" operator="out"/>
<feColorMatrix type="matrix" values="0 0 0 0 0 0 0 0 0 0 0 0 0 0 0 0 0 0 0.25 0"/>
<feBlend mode="normal" in2="BackgroundImageFix" result="effect1_dropShadow_136_48"/>
<feBlend mode="normal" in="SourceGraphic" in2="effect1_dropShadow_136_48" result="shape"/>
</filter>
<filter id="filter4_i_136_48" x="22.7582" y="6.46631" width="25.5536" height="25.5536" filterUnits="userSpaceOnUse" color-interpolation-filters="sRGB">
<feFlood flood-opacity="0" result="BackgroundImageFix"/>
<feBlend mode="normal" in="SourceGraphic" in2="BackgroundImageFix" result="shape"/>
<feColorMatrix in="SourceAlpha" type="matrix" values="0 0 0 0 0 0 0 0 0 0 0 0 0 0 0 0 0 0 127 0" result="hardAlpha"/>
<feOffset/>
<feGaussianBlur stdDeviation="0.41891"/>
<feComposite in2="hardAlpha" operator="arithmetic" k2="-1" k3="1"/>
<feColorMatrix type="matrix" values="0 0 0 0 0 0 0 0 0 0 0 0 0 0 0 0 0 0 0.4 0"/>
<feBlend mode="normal" in2="shape" result="effect1_innerShadow_136_48"/>
</filter>
<filter id="filter5_f_136_48" x="21.5538" y="3.7434" width="28.067" height="30.5805" filterUnits="userSpaceOnUse" color-interpolation-filters="sRGB">
<feFlood flood-opacity="0" result="BackgroundImageFix"/>
<feBlend mode="normal" in="SourceGraphic" in2="BackgroundImageFix" result="shape"/>
<feGaussianBlur stdDeviation="2.09455" result="effect1_foregroundBlur_136_48"/>
</filter>
<filter id="filter6_f_136_48" x="26.1093" y="8.56083" width="18.9557" height="21.3644" filterUnits="userSpaceOnUse" color-interpolation-filters="sRGB">
<feFlood flood-opacity="0" result="BackgroundImageFix"/>
<feBlend mode="normal" in="SourceGraphic" in2="BackgroundImageFix" result="shape"/>
<feGaussianBlur stdDeviation="0.209455" result="effect1_foregroundBlur_136_48"/>
</filter>
<filter id="filter7_i_136_48" x="37.2815" y="5.66785" width="27.1506" height="27.1506" filterUnits="userSpaceOnUse" color-interpolation-filters="sRGB">
<feFlood flood-opacity="0" result="BackgroundImageFix"/>
<feBlend mode="normal" in="SourceGraphic" in2="BackgroundImageFix" result="shape"/>
<feColorMatrix in="SourceAlpha" type="matrix" values="0 0 0 0 0 0 0 0 0 0 0 0 0 0 0 0 0 0 127 0" result="hardAlpha"/>
<feOffset/>
<feGaussianBlur stdDeviation="0.41891"/>
<feComposite in2="hardAlpha" operator="arithmetic" k2="-1" k3="1"/>
<feColorMatrix type="matrix" values="0 0 0 0 0 0 0 0 0 0 0 0 0 0 0 0 0 0 0.4 0"/>
<feBlend mode="normal" in2="shape" result="effect1_innerShadow_136_48"/>
</filter>
<filter id="filter8_f_136_48" x="38.5907" y="4.75149" width="24.4212" height="28.7727" filterUnits="userSpaceOnUse" color-interpolation-filters="sRGB">
<feFlood flood-opacity="0" result="BackgroundImageFix"/>
<feBlend mode="normal" in="SourceGraphic" in2="BackgroundImageFix" result="shape"/>
<feGaussianBlur stdDeviation="1.57091" result="effect1_foregroundBlur_136_48"/>
</filter>
<linearGradient id="paint0_linear_136_48" x1="13.7498" y1="7.09455" x2="27.0503" y2="31.7056" gradientUnits="userSpaceOnUse">
<stop stop-color="#22B20D"/>
<stop offset="1" stop-color="#08791A"/>
</linearGradient>
<linearGradient id="paint1_linear_136_48" x1="13.8543" y1="8.03717" x2="27.5736" y2="30.1347" gradientUnits="userSpaceOnUse">
<stop stop-color="#58EA06"/>
<stop offset="1" stop-color="#27B017"/>
</linearGradient>
<linearGradient id="paint2_linear_136_48" x1="29.0418" y1="7.09455" x2="42.3423" y2="31.7056" gradientUnits="userSpaceOnUse">
<stop stop-color="#6E2DAE"/>
<stop offset="1" stop-color="#4D1789"/>
</linearGradient>
<linearGradient id="paint3_linear_136_48" x1="29.1466" y1="8.03717" x2="42.866" y2="30.1347" gradientUnits="userSpaceOnUse">
<stop stop-color="#8541C2"/>
<stop offset="1" stop-color="#712EAB"/>
</linearGradient>
<radialGradient id="paint4_radial_136_48" cx="0" cy="0" r="1" gradientUnits="userSpaceOnUse" gradientTransform="translate(35.535 19.0336) rotate(-117.79) scale(8.76027 7.76854)">
<stop offset="0.346154" stop-color="#FFEA74"/>
<stop offset="0.870192" stop-color="#FF00EE"/>
</radialGradient>
<radialGradient id="paint5_radial_136_48" cx="0" cy="0" r="1" gradientUnits="userSpaceOnUse" gradientTransform="translate(35.5871 19.2431) rotate(90.3452) scale(8.69256 7.67251)">
<stop offset="0.625" stop-color="#FAFF9C"/>
<stop offset="1" stop-color="#FFA238"/>
</radialGradient>
<radialGradient id="paint6_radial_136_48" cx="0" cy="0" r="1" gradientUnits="userSpaceOnUse" gradientTransform="translate(35.5871 19.2431) rotate(90.3452) scale(8.69256 7.67251)">
<stop offset="0.5625" stop-color="#FEFFEB"/>
<stop offset="1" stop-color="#FFF063"/>
</radialGradient>
<radialGradient id="paint7_radial_136_48" cx="0" cy="0" r="1" gradientUnits="userSpaceOnUse" gradientTransform="translate(32.8119 28.6684) rotate(90) scale(0.418911)">
<stop stop-color="#FFBE5D"/>
<stop offset="0.663462" stop-color="#FFC877"/>
<stop offset="1" stop-color="white"/>
</radialGradient>
<radialGradient id="paint8_radial_136_48" cx="0" cy="0" r="1" gradientUnits="userSpaceOnUse" gradientTransform="translate(28.937 12.2263) rotate(90) scale(0.523639)">
<stop stop-color="#FFBE5D"/>
<stop offset="0.663462" stop-color="#FFC877"/>
<stop offset="1" stop-color="white"/>
</radialGradient>
<radialGradient id="paint9_radial_136_48" cx="0" cy="0" r="1" gradientUnits="userSpaceOnUse" gradientTransform="translate(37.9436 11.0744) rotate(90) scale(0.314174)">
<stop stop-color="#FFBE5D"/>
<stop offset="0.663462" stop-color="#FFC877"/>
<stop offset="1" stop-color="white"/>
</radialGradient>
<radialGradient id="paint10_radial_136_48" cx="0" cy="0" r="1" gradientUnits="userSpaceOnUse" gradientTransform="translate(42.5516 15.3681) rotate(90) scale(0.314174)">
<stop stop-color="#FFBE5D"/>
<stop offset="0.663462" stop-color="#FFC877"/>
<stop offset="1" stop-color="white"/>
</radialGradient>
<radialGradient id="paint11_radial_136_48" cx="0" cy="0" r="1" gradientUnits="userSpaceOnUse" gradientTransform="translate(39.6192 27.5166) rotate(90) scale(0.314174)">
<stop stop-color="#FFBE5D"/>
<stop offset="0.663462" stop-color="#FFC877"/>
<stop offset="1" stop-color="white"/>
</radialGradient>
<radialGradient id="paint12_radial_136_48" cx="0" cy="0" r="1" gradientUnits="userSpaceOnUse" gradientTransform="translate(41.8186 26.3647) rotate(90) scale(0.209449)">
<stop stop-color="#FFBE5D"/>
<stop offset="0.663462" stop-color="#FFC877"/>
<stop offset="1" stop-color="white"/>
</radialGradient>
<radialGradient id="paint13_radial_136_48" cx="0" cy="0" r="1" gradientUnits="userSpaceOnUse" gradientTransform="translate(43.8081 21.233) rotate(90) scale(0.104725)">
<stop stop-color="#FFBE5D"/>
<stop offset="0.663462" stop-color="#FFC877"/>
<stop offset="1" stop-color="white"/>
</radialGradient>
<radialGradient id="paint14_radial_136_48" cx="0" cy="0" r="1" gradientUnits="userSpaceOnUse" gradientTransform="translate(28.2041 24.0604) rotate(90) scale(0.209449)">
<stop stop-color="#FFBE5D"/>
<stop offset="0.663462" stop-color="#FFC877"/>
<stop offset="1" stop-color="white"/>
</radialGradient>
<radialGradient id="paint15_radial_136_48" cx="0" cy="0" r="1" gradientUnits="userSpaceOnUse" gradientTransform="translate(26.4235 15.9964) rotate(90) scale(0.104725)">
<stop stop-color="#FFBE5D"/>
<stop offset="0.663462" stop-color="#FFC877"/>
<stop offset="1" stop-color="white"/>
</radialGradient>
<radialGradient id="paint16_radial_136_48" cx="0" cy="0" r="1" gradientUnits="userSpaceOnUse" gradientTransform="translate(31.3459 12.1216) rotate(90) scale(0.209449)">
<stop stop-color="#FFBE5D"/>
<stop offset="0.663462" stop-color="#FFC877"/>
<stop offset="1" stop-color="white"/>
</radialGradient>
<linearGradient id="paint17_linear_136_48" x1="44.0399" y1="7.33674" x2="58.6167" y2="30.8154" gradientUnits="userSpaceOnUse">
<stop stop-color="#F55B6F"/>
<stop offset="1" stop-color="#D5303A"/>
</linearGradient>
<radialGradient id="paint18_radial_136_48" cx="0" cy="0" r="1" gradientUnits="userSpaceOnUse" gradientTransform="translate(50.8569 25.1407) rotate(-90) scale(14.4655 11.6665)">
<stop offset="0.125" stop-color="#FFE356"/>
<stop offset="0.485577" stop-color="#FF8B49"/>
<stop offset="1" stop-color="#FF632C"/>
</radialGradient>
<radialGradient id="paint19_radial_136_48" cx="0" cy="0" r="1" gradientUnits="userSpaceOnUse" gradientTransform="translate(50.8569 25.1407) rotate(-90) scale(14.4655 11.6665)">
<stop offset="0.129808" stop-color="#FEFEDA"/>
<stop offset="0.526171" stop-color="#FFDE38"/>
<stop offset="1" stop-color="#FC4C0E"/>
</radialGradient>
</defs>
</svg>
