<svg width="52" height="53" viewBox="0 0 52 53" fill="none" xmlns="http://www.w3.org/2000/svg">
<path d="M25.8983 32.6699C29.4741 32.6699 32.3729 29.7711 32.3729 26.1953C32.3729 22.6195 29.4741 19.7207 25.8983 19.7207C22.3225 19.7207 19.4237 22.6195 19.4237 26.1953C19.4237 29.7711 22.3225 32.6699 25.8983 32.6699Z" stroke="#5CBFFD" stroke-width="4.84431"/>
<path d="M29.7086 4.94185C28.9153 4.61328 27.9098 4.61328 25.8985 4.61328C23.8873 4.61328 22.8818 4.61328 22.0885 4.94185C21.0309 5.37994 20.1906 6.22024 19.7525 7.27786C19.5525 7.76068 19.4742 8.32215 19.4436 9.14117C19.3986 10.3448 18.7814 11.4589 17.7383 12.0611C16.6952 12.6633 15.4217 12.6408 14.3569 12.078C13.6323 11.695 13.1069 11.482 12.5888 11.4138C11.4538 11.2644 10.3059 11.572 9.39771 12.2689C8.71653 12.7915 8.21374 13.6624 7.20814 15.4041C6.20255 17.1459 5.69976 18.0168 5.58768 18.868C5.43827 20.003 5.74583 21.1509 6.44274 22.0591C6.76081 22.4737 7.20786 22.822 7.90171 23.258C8.92169 23.899 9.57798 24.9908 9.57792 26.1953C9.57785 27.3998 8.92159 28.4914 7.90168 29.1322C7.20776 29.5684 6.76064 29.9169 6.44252 30.3315C5.74562 31.2397 5.43805 32.3874 5.58749 33.5224C5.69954 34.3736 6.20234 35.2447 7.20793 36.9863C8.21354 38.728 8.71634 39.599 9.39749 40.1215C10.3057 40.8184 11.4536 41.126 12.5886 40.9766C13.1066 40.9084 13.632 40.6954 14.3566 40.3126C15.4215 39.7497 16.695 39.7272 17.7382 40.3294C18.7813 40.9317 19.3986 42.0458 19.4436 43.2496C19.4742 44.0685 19.5525 44.63 19.7525 45.1128C20.1906 46.1703 21.0309 47.0107 22.0885 47.4489C22.8818 47.7773 23.8873 47.7773 25.8985 47.7773C27.9098 47.7773 28.9153 47.7773 29.7086 47.4489C30.7662 47.0107 31.6066 46.1703 32.0445 45.1128C32.2445 44.63 32.3229 44.0685 32.3535 43.2494C32.3984 42.0458 33.0157 40.9317 34.0587 40.3294C35.1018 39.727 36.3753 39.7497 37.4404 40.3126C38.1649 40.6954 38.6902 40.9082 39.2082 40.9764C40.3432 41.126 41.4911 40.8184 42.3993 40.1215C43.0804 39.5988 43.5833 38.728 44.5888 36.9861C45.5945 35.2444 46.0974 34.3736 46.2094 33.5224C46.3587 32.3874 46.0512 31.2395 45.3543 30.3313C45.0362 29.9167 44.589 29.5682 43.8952 29.1322C42.8754 28.4914 42.2191 27.3996 42.2191 26.1951C42.2191 24.9906 42.8754 23.8992 43.8952 23.2584C44.5892 22.8223 45.0364 22.4739 45.3545 22.0591C46.0514 21.151 46.359 20.0031 46.2096 18.8681C46.0976 18.0169 45.5947 17.146 44.589 15.4043C43.5835 13.6626 43.0807 12.7917 42.3995 12.269C41.4914 11.5721 40.3434 11.2645 39.2084 11.414C38.6904 11.4822 38.1651 11.6951 37.4404 12.0781C36.3755 12.6409 35.102 12.6634 34.0589 12.0612C33.0157 11.4589 32.3984 10.3447 32.3535 9.14106C32.3229 8.32211 32.2445 7.76065 32.0445 7.27786C31.6066 6.22024 30.7662 5.37994 29.7086 4.94185Z" stroke="#5CBFFD" stroke-width="4.84431"/>
</svg>
